<?xml version="1.0" standalone="no"?><!DOCTYPE svg PUBLIC "-//W3C//DTD SVG 1.1//EN" "http://www.w3.org/Graphics/SVG/1.1/DTD/svg11.dtd"><svg t="1584082464797" class="icon" viewBox="0 0 1024 1024" version="1.1" xmlns="http://www.w3.org/2000/svg" p-id="7343" xmlns:xlink="http://www.w3.org/1999/xlink" width="72" height="72"><defs><style type="text/css"></style></defs><path d="M934.963826 223.392436c-56.862111-83.176162-136.024266-147.268288-228.930447-185.340362-10.22402-4.192008-21.918043 0.702001-26.108051 10.930022-4.192008 10.22802 0.702001 21.918043 10.930021 26.110051 85.646167 35.098069 158.62831 94.192184 211.064413 170.890333 53.680105 78.522153 82.05216 170.512333 82.05216 266.01652 0 260.246508-211.726414 471.970922-471.970922 471.970922S40.030078 772.247508 40.030078 511.999 251.754492 40.030078 511.999 40.030078c11.056022 0 20.014039-8.962018 20.014039-20.014039S523.055022 0 511.999 0C229.680449 0 0 229.682449 0 511.999s229.680449 511.999 511.999 511.999 511.999-229.680449 511.999-511.999c0.004-103.600202-30.78406-203.398397-89.034174-288.606564z" fill="#ff6969" p-id="7344"></path><path d="M878.789716 373.210729h-163.642319c-11.056022 0-20.014039 8.962018-20.014039 20.014039s8.958017 20.014039 20.014039 20.014039h163.642319c11.056022 0 20.014039-8.962018 20.014039-20.014039s-8.958017-20.014039-20.014039-20.014039zM796.969557 670.319309H435.772851a20.010039 20.010039 0 0 0-20.014039 20.014039c0 11.054022 8.958017 20.014039 20.014039 20.014039h361.194706c11.056022 0 20.014039-8.962018 20.014039-20.014039 0.002-11.054022-8.956017-20.014039-20.012039-20.014039zM503.964984 373.210729h-163.642319c-11.056022 0-20.014039 8.962018-20.014039 20.014039s8.958017 20.014039 20.014039 20.014039h163.642319c11.054022 0 20.014039-8.962018 20.014039-20.014039s-8.958017-20.014039-20.014039-20.014039z" fill="#ff6969" p-id="7345"></path><path d="M628.061227 35.480069m-20.014039 0a20.014039 20.014039 0 1 0 40.028078 0 20.014039 20.014039 0 1 0-40.028078 0Z" fill="#ff6969" p-id="7346"></path></svg>